<?xml version="1.0" encoding="UTF-8"?>
<svg version="1.1" xmlns="http://www.w3.org/2000/svg" width="500" height="500">
<path d="M0 0 C165 0 330 0 500 0 C500 165 500 330 500 500 C335 500 170 500 0 500 C0 335 0 170 0 0 Z " fill="#000000" transform="translate(0,0)"/>
<path d="M0 0 C0.84061981 -0.00852997 1.68123962 -0.01705994 2.54733276 -0.02584839 C3.46159027 -0.02494202 4.37584778 -0.02403564 5.31781006 -0.02310181 C6.77243149 -0.03317764 6.77243149 -0.03317764 8.25643921 -0.04345703 C11.46933095 -0.0624823 14.68201387 -0.066365 17.8949585 -0.06851196 C20.13777755 -0.07494198 22.38059578 -0.0816705 24.62341309 -0.08868408 C29.33439066 -0.10067188 34.04529487 -0.10436388 38.75628662 -0.10317993 C44.75440016 -0.10297786 50.75203391 -0.13015725 56.75003433 -0.16472435 C61.38987322 -0.18712448 66.02959961 -0.1910133 70.669487 -0.18996048 C72.87798448 -0.19230148 75.08648578 -0.20103903 77.2949295 -0.21662521 C102.96826062 -0.38069173 122.81677537 4.89940858 141.8793335 23.01742554 C156.26888387 37.763926 162.30713478 56.10572276 162.17376709 76.39022827 C161.67844698 94.17222021 154.63504643 110.10870763 142.7543335 123.26742554 C141.90741943 124.21875366 141.90741943 124.21875366 141.043396 125.18930054 C128.42785902 138.57479986 110.17883111 147.10777525 91.7912302 147.6894722 C87.49770559 147.74563071 83.20787135 147.70945334 78.91448975 147.65805054 C77.05263382 147.65056972 75.19076989 147.64488552 73.3289032 147.64089966 C68.48075775 147.62578793 63.63310858 147.58663493 58.78515625 147.54208374 C53.81726795 147.50081491 48.84929773 147.48282184 43.88128662 147.46273804 C34.17208684 147.4201233 24.46325179 147.35205241 14.7543335 147.26742554 C14.75709888 147.81426593 14.75986425 148.36110632 14.76271343 148.92451763 C14.82899692 162.236834 14.87843398 175.54912141 14.90977001 188.8615675 C14.92543293 195.29940625 14.94668295 201.73712599 14.98065186 208.17489624 C15.01322249 214.38646428 15.03118179 220.59791776 15.03896523 226.80956459 C15.04451282 229.18066524 15.05534576 231.55175956 15.07152367 233.92281151 C15.09326696 237.24119036 15.09630166 240.55909445 15.09490967 243.87753296 C15.1056955 244.8600856 15.11648132 245.84263824 15.12759399 246.85496521 C15.10508304 251.80687978 15.0364329 255.27961593 11.7543335 259.26742554 C6.9694018 263.46882898 4.25312496 264.57239609 -1.9956665 264.48226929 C-6.45842883 264.05613747 -8.62727923 261.97169993 -11.4956665 258.70492554 C-13.74650478 255.56982937 -14.3707647 254.00219104 -14.38547421 250.21462727 C-14.39116545 249.36153014 -14.39685669 248.50843302 -14.40272039 247.62948447 C-14.40390027 246.68680266 -14.40508015 245.74412085 -14.40629578 244.77287292 C-14.41392751 243.2770126 -14.41392751 243.2770126 -14.42171341 241.75093287 C-14.43749057 238.38769815 -14.44597681 235.02448498 -14.45440674 231.66122437 C-14.46394093 229.25852317 -14.47383189 226.85582337 -14.48405457 224.453125 C-14.51277465 217.2265839 -14.5325288 210.00003654 -14.54944691 202.77346066 C-14.55424134 200.73250617 -14.55922474 198.69155221 -14.56425214 196.65059829 C-14.59522426 183.97832548 -14.62191168 171.30604812 -14.63867092 158.63374805 C-14.64262047 155.697757 -14.64662346 152.76176603 -14.6506958 149.82577515 C-14.65170416 149.0960417 -14.65271252 148.36630826 -14.65375144 147.61446168 C-14.67075563 135.79517025 -14.71186095 123.9760883 -14.76271879 112.15689913 C-14.81449781 100.02385949 -14.84361359 87.89092755 -14.85086781 75.75777835 C-14.85552991 68.94483696 -14.8702788 62.13223851 -14.91061211 55.31940651 C-14.94851186 48.90981263 -14.95590814 42.50064263 -14.94260597 36.0909462 C-14.94266002 33.73791476 -14.95299806 31.38485778 -14.9743576 29.03192329 C-15.00196086 25.81953736 -14.99256387 22.60929883 -14.97392273 19.39689636 C-14.99071766 18.46536816 -15.00751259 17.53383996 -15.02481645 16.57408363 C-14.94223526 10.88065096 -13.84707785 7.80459798 -9.92318875 3.63787383 C-6.74584834 1.04215222 -4.07868482 0.01878549 0 0 Z " fill="#FDFDFD" transform="translate(103.24566650390625,117.73257446289063)"/>
<path d="M0 0 C0.82120331 -0.01283524 1.64240662 -0.02567047 2.48849487 -0.03889465 C3.36772614 -0.04628159 4.2469574 -0.05366852 5.15283203 -0.0612793 C6.06517609 -0.06935104 6.97752014 -0.07742279 7.91751099 -0.08573914 C9.84570429 -0.09955182 11.77392175 -0.11028653 13.70214844 -0.11816406 C15.67097145 -0.1296995 17.63976282 -0.1501759 19.60839844 -0.1796875 C22.45675864 -0.2223819 25.3041915 -0.23853419 28.15283203 -0.2487793 C29.46560623 -0.27504143 29.46560623 -0.27504143 30.80490112 -0.30183411 C36.30727633 -0.28238103 39.4204444 0.51282869 43.78564453 4.17700195 C47.72277806 8.52857059 48.41555431 12.09164473 48.17626953 17.7746582 C47.438806 22.3100589 45.08401493 25.03600979 41.72314453 27.98950195 C37.51098834 30.57114607 33.3796384 30.32715475 28.60986328 30.3527832 C26.96076202 30.37598463 25.31167344 30.4001021 23.66259766 30.42504883 C21.06884303 30.46012277 18.47555446 30.48948947 15.8815918 30.50292969 C13.37377784 30.51845869 10.86731707 30.5586982 8.35986328 30.6027832 C7.20643684 30.59992058 7.20643684 30.59992058 6.02970886 30.59700012 C0.86608044 30.71354733 -2.16698638 31.70202573 -6.21435547 35.17700195 C-10.31430033 39.76683293 -9.68968863 45.3336394 -9.72607422 51.1652832 C-9.74402542 52.22361862 -9.76197662 53.28195404 -9.7804718 54.37236023 C-9.83455038 57.74470057 -9.86846337 61.11689955 -9.90185547 64.48950195 C-9.93503063 66.77923515 -9.96952047 69.06894971 -10.00537109 71.35864258 C-10.09027544 76.96463561 -10.1586358 82.57064698 -10.21435547 88.17700195 C-9.62633148 88.16811951 -9.0383075 88.15923706 -8.4324646 88.15008545 C-2.3004531 88.06144412 3.83137575 88.00119812 9.96386719 87.95727539 C12.25105179 87.93718679 14.53818521 87.90991067 16.82519531 87.87524414 C20.11682787 87.82660637 23.40778011 87.80400516 26.69970703 87.78637695 C27.71868073 87.76573181 28.73765442 87.74508667 29.7875061 87.72381592 C37.41617675 87.72141644 40.44299688 89.27417636 46.16064453 94.23950195 C48.67811914 98.79032144 48.51027798 103.09709736 47.78564453 108.17700195 C45.45861789 113.29646056 41.99355226 116.1740458 36.78564453 118.17700195 C33.11974 118.69900659 29.51739455 118.64456387 25.82080078 118.56762695 C24.7874913 118.56196716 23.75418182 118.55630737 22.68955994 118.55047607 C19.40860497 118.52819244 16.1287661 118.47800978 12.84814453 118.42700195 C10.61573849 118.40692665 8.38331524 118.38867769 6.15087891 118.37231445 C0.69542382 118.32835409 -4.75938606 118.26152238 -10.21435547 118.17700195 C-10.2106683 118.86630326 -10.20698112 119.55560457 -10.20318222 120.2657938 C-10.11478324 137.05041415 -10.04862262 153.83496061 -10.00710678 170.61975956 C-9.98649556 178.73682588 -9.95840264 186.85373665 -9.91259766 194.97070312 C-9.87268561 202.04678101 -9.84691218 209.12274622 -9.83800149 216.19893354 C-9.83279407 219.94457826 -9.82058525 223.6899007 -9.79143524 227.43544197 C-9.759131 231.62035446 -9.75839885 235.80470928 -9.76025391 239.98974609 C-9.7458728 241.22692886 -9.7314917 242.46411163 -9.7166748 243.73878479 C-9.74889194 250.45056918 -10.12312642 254.75925991 -14.21435547 260.17700195 C-17.75052337 263.46058643 -20.49612341 264.45738454 -25.21435547 264.67700195 C-29.9235124 264.46487777 -32.65110682 263.40089359 -36.21435547 260.17700195 C-41.41633542 254.48317649 -40.79034028 248.52430553 -40.76025391 241.10327148 C-40.77059158 239.7856633 -40.78092926 238.46805511 -40.7915802 237.11051941 C-40.81938525 233.50966585 -40.82284612 229.90915616 -40.82186031 226.30821085 C-40.82499419 222.54050953 -40.85062221 218.77296201 -40.87384033 215.00534058 C-40.9143677 207.87630819 -40.93473332 200.7473672 -40.94781423 193.61823738 C-40.96369537 185.49967023 -41.00211565 177.38125836 -41.04240751 169.26278138 C-41.12476175 152.56756625 -41.17888174 135.87238391 -41.21435547 119.17700195 C-42.44412109 119.1512207 -43.67388672 119.12543945 -44.94091797 119.09887695 C-46.57376479 119.04257189 -48.20657592 118.9852251 -49.83935547 118.92700195 C-51.05171875 118.90573242 -51.05171875 118.90573242 -52.28857422 118.8840332 C-59.05405959 118.60901347 -62.90954485 116.6637713 -67.58935547 111.61450195 C-69.90461673 106.71683391 -70.35502339 102.49011307 -69.21435547 97.17700195 C-66.67227016 92.93117862 -63.95660145 89.75775061 -59.21435547 88.17700195 C-57.80770621 88.03208072 -56.39624217 87.93071264 -54.98388672 87.8605957 C-54.18144531 87.81870117 -53.37900391 87.77680664 -52.55224609 87.73364258 C-51.71886719 87.69432617 -50.88548828 87.65500977 -50.02685547 87.61450195 C-49.181875 87.57131836 -48.33689453 87.52813477 -47.46630859 87.48364258 C-45.38251113 87.37768678 -43.29845444 87.27685175 -41.21435547 87.17700195 C-41.21070984 86.56471741 -41.20706421 85.95243286 -41.20330811 85.32159424 C-41.16120142 78.89623283 -41.09166224 72.47156714 -41.00683594 66.04663086 C-40.9787686 63.6551004 -40.95748396 61.26347962 -40.94335938 58.87182617 C-40.92173214 55.41579419 -40.8749802 51.96083199 -40.82373047 48.50512695 C-40.82250183 47.45149963 -40.82127319 46.39787231 -40.82000732 45.31231689 C-40.55832801 31.77422118 -35.8386516 20.56391158 -26.08154297 11.1105957 C-18.81945887 5.08488793 -9.60144917 0.13143184 0 0 Z " fill="#FCFCFC" transform="translate(363.21435546875,117.822998046875)"/>
<path d="M0 0 C12.9525 -0.0825 25.905 -0.165 39.25 -0.25 C43.31731445 -0.28641602 47.38462891 -0.32283203 51.57519531 -0.36035156 C56.59912109 -0.37841797 56.59912109 -0.37841797 58.96209717 -0.3817749 C60.58828123 -0.38785762 62.21444895 -0.40180014 63.84051514 -0.42230225 C78.92126636 -0.60269488 92.61210445 1.40405346 104.22265625 12.03515625 C113.05684553 21.39774563 117.60059219 32.45718614 117.2421875 45.33984375 C116.18836282 56.9149181 111.78966078 67.89256421 103.1875 75.9375 C89.93757921 86.38993271 75.1645497 87.4521693 58.984375 87.29296875 C57.46761406 87.28854597 55.95084849 87.2854928 54.43408203 87.28381348 C48.87265054 87.26822304 43.31131772 87.22633986 37.75 87.1875 C25.2925 87.125625 12.835 87.06375 0 87 C0 58.29 0 29.58 0 0 Z " fill="#020202" transform="translate(118,148)"/>
<path d="M0 0 C0.33 0 0.66 0 1 0 C1 14.52 1 29.04 1 44 C-12.86 44 -26.72 44 -41 44 C-41 43.67 -41 43.34 -41 43 C-39.97261719 42.79246094 -38.94523437 42.58492188 -37.88671875 42.37109375 C-25.78093395 39.75366635 -15.89651919 35.89496015 -8.49609375 25.37109375 C-3.24395554 17.04720891 -1.03267397 9.83352232 0 0 Z " fill="#F7F7F7" transform="translate(499,456)"/>
<path d="M0 0 C0.33 0 0.66 0 1 0 C1.07476562 0.79921875 1.14953125 1.5984375 1.2265625 2.421875 C2.6439139 14.26092785 6.89746951 24.95883176 16 33 C23.57876431 38.52670687 31.69998218 41.80769002 41 43 C41 43.33 41 43.66 41 44 C27.47 44 13.94 44 0 44 C0 29.48 0 14.96 0 0 Z " fill="#F9F9F9" transform="translate(0,456)"/>
<path d="M0 0 C12.87 0 25.74 0 39 0 C39 13.53 39 27.06 39 41 C38.67 41 38.34 41 38 41 C37.92523438 40.41734375 37.85046875 39.8346875 37.7734375 39.234375 C35.98511245 28.08364234 30.90676433 17.49613424 21.97265625 10.38671875 C15.28510302 5.6501916 8.07454602 2.44597367 0 1 C0 0.67 0 0.34 0 0 Z " fill="#FAFAFA" transform="translate(461,0)"/>
<path d="M0 0 C12.87 0 25.74 0 39 0 C39 0.33 39 0.66 39 1 C38.31035156 1.15855469 37.62070312 1.31710938 36.91015625 1.48046875 C24.75339534 4.49881405 14.45433114 10.07056921 7.6875 20.9375 C4.07409637 27.41806086 1.77101987 33.59820921 1 41 C0.67 41 0.34 41 0 41 C0 27.47 0 13.94 0 0 Z " fill="#FAFAFA" transform="translate(0,0)"/>
<path d="M0 0 C0.66 0.33 1.32 0.66 2 1 C-1.96 4.96 -5.92 8.92 -10 13 C-10.66 12.67 -11.32 12.34 -12 12 C-10.75479583 10.55834372 -9.50362077 9.12184348 -8.25 7.6875 C-7.55390625 6.88699219 -6.8578125 6.08648437 -6.140625 5.26171875 C-4.20854665 3.22034399 -2.30056874 1.60107149 0 0 Z " fill="#202020" transform="translate(20,7)"/>
</svg>
